<svg width="10" height="10" viewBox="0 0 10 10" fill="none" xmlns="http://www.w3.org/2000/svg">
<path fill-rule="evenodd" clip-rule="evenodd" d="M9.89376 5.11364C9.89376 4.75909 9.86194 4.41819 9.80285 4.09091H5.09375V6.02501H7.78466C7.66876 6.65001 7.31648 7.17955 6.78694 7.5341V8.78865H8.40285C9.3483 7.91819 9.89376 6.63637 9.89376 5.11364Z" fill="#4285F4"/>
<path fill-rule="evenodd" clip-rule="evenodd" d="M5.09356 9.99999C6.44356 9.99999 7.57538 9.55226 8.40266 8.78862L6.78674 7.53408C6.33902 7.83408 5.76629 8.01135 5.09356 8.01135C3.79128 8.01135 2.68901 7.1318 2.29582 5.94998H0.625366V7.24544C1.4481 8.87953 3.13901 9.99999 5.09356 9.99999Z" fill="#34A853"/>
<path fill-rule="evenodd" clip-rule="evenodd" d="M2.29603 5.94998C2.19603 5.64998 2.13921 5.32952 2.13921 4.99998C2.13921 4.67043 2.19603 4.34997 2.29603 4.04997V2.75452H0.625569C0.286932 3.42952 0.09375 4.19316 0.09375 4.99998C0.09375 5.8068 0.286932 6.57043 0.625569 7.24544L2.29603 5.94998Z" fill="#FBBC05"/>
<path fill-rule="evenodd" clip-rule="evenodd" d="M5.09356 1.98864C5.82765 1.98864 6.48674 2.24091 7.00493 2.73637L8.43902 1.30228C7.57311 0.495456 6.44129 0 5.09356 0C3.13901 0 1.4481 1.12046 0.625366 2.75455L2.29582 4.05001C2.68901 2.86819 3.79128 1.98864 5.09356 1.98864Z" fill="#EA4335"/>
</svg>
