<svg width="10" height="17" viewBox="0 0 10 17" fill="none" xmlns="http://www.w3.org/2000/svg">
<path d="M9.41602 1.05179C9.41602 0.835698 9.24274 0.644827 9.04094 0.7221C8.87333 0.786274 8.72332 0.906158 8.62143 1.08175L6.35972 4.97951C6.20108 5.25291 5.92687 5.43949 5.61432 5.48669L1.37572 6.12688C0.663822 6.23441 0.414106 7.13325 0.968527 7.59258L4.1261 10.2086C4.41839 10.4508 4.55582 10.8327 4.48482 11.2056L3.65885 15.5432C3.52828 16.2289 4.2481 16.7617 4.86572 16.4365L8.8569 14.3349C8.89595 14.3144 8.93598 14.2965 8.97673 14.2812C9.20309 14.1963 9.41602 14.012 9.41602 13.7703V1.05179Z" fill="#299764"/>
</svg>
